<svg enable-background="new 0 0 851.229 739.875" version="1.1" viewBox="0 0 700.50927 436.70715" xmlns="http://www.w3.org/2000/svg" xmlns:xlink="http://www.w3.org/1999/xlink">
 <defs>
  <linearGradient id="k" x1="141.6" x2="850.4" gradientUnits="userSpaceOnUse">
   <stop offset="0"/>
   <stop stop-color="#00457c" offset=".2473"/>
   <stop stop-color="#7993ba" offset=".7033"/>
   <stop stop-color="#00457c" offset="1"/>
  </linearGradient>
  <linearGradient id="j" x2="0" gradientUnits="userSpaceOnUse">
   <stop offset="0"/>
   <stop stop-color="#00457c" offset=".2473"/>
   <stop stop-color="#7993ba" offset=".5714"/>
   <stop stop-color="#00457c" offset="1"/>
  </linearGradient>
  <linearGradient id="i" x2="0" y1="330.59" y2="268.02" gradientUnits="userSpaceOnUse">
   <stop stop-color="#4d4d4d" offset="0"/>
   <stop offset="1"/>
  </linearGradient>
  <linearGradient id="h" x2="0" y1="330.47" y2="383.79" gradientUnits="userSpaceOnUse">
   <stop stop-color="#999" offset="0"/>
   <stop offset="1"/>
  </linearGradient>
  <linearGradient id="g" x2="0" y1="220.77" y2="72.173" gradientUnits="userSpaceOnUse">
   <stop stop-color="#333" offset="0"/>
   <stop stop-color="#1a1a1a" offset="1"/>
  </linearGradient>
  <linearGradient id="f" x2="0" y1="226.72" y2="50.723" gradientUnits="userSpaceOnUse">
   <stop stop-color="#333" offset="0"/>
   <stop stop-color="#1a1a1a" offset="1"/>
  </linearGradient>
  <linearGradient id="e" x2="0" y1="227" y2="150.33" gradientUnits="userSpaceOnUse">
   <stop stop-color="#7a7a7a" offset="0"/>
   <stop offset="1"/>
  </linearGradient>
  <linearGradient id="d" x2="0" y1="221.08" y2="153.79" gradientUnits="userSpaceOnUse">
   <stop stop-color="#7a7a7a" offset="0"/>
   <stop offset="1"/>
  </linearGradient>
  <linearGradient id="c" x1="750.67" x2="749.25" y1="243.55" y2="229.81" gradientUnits="userSpaceOnUse">
   <stop stop-color="#333" offset="0"/>
   <stop stop-color="#fff" offset=".522"/>
   <stop offset="1"/>
  </linearGradient>
  <linearGradient id="l" x1="846.97" x2="752.11" y1="225.97" y2="250.45" gradientUnits="userSpaceOnUse">
   <stop stop-color="#4d4d4d" offset="0"/>
   <stop offset="1"/>
  </linearGradient>
  <clipPath id="b">
   <rect x="144.1" y="1.676" width="700.51" height="436.71" fill="#1a1a1a" stroke="#b07f00" stroke-width="1.0073"/>
  </clipPath>
  <linearGradient id="a" x2="0" gradientUnits="userSpaceOnUse">
   <stop stop-color="#4d4d4d" offset="0"/>
   <stop offset="1"/>
  </linearGradient>
 </defs>



<g xmlns="http://www.w3.org/2000/svg" transform="translate(-144.1 -1.676)" clip-path="url(#b)">
  
  
  
  <path d="m647.44 301.86 105.37-6.545" fill="none" stroke="#000" stroke-width=".5"/>
  <path d="m271.55 323.73v-3.928s94.27-55.705 316.37-74.63l0.714 10.713-5.735-1.551c-1e-3 0-171.73 10.12-311.35 69.396z" fill="#808080" stroke="#000" stroke-width="1.5"/>
  <path d="m271.9 318.33-0.333-34s0.667-12.667 5.667-14c0 0 7 3.334 7.667 12.334l-1.334 30.333 8-3.333 0.333-29.334s2-8 5.667-8.333c0 0 5.333 2.333 5.333 33.333l7.333-3.333 0.333-40.667 2.667-3.666-0.333-1.667-52-2.333-5.333 3 1.333 1 0.333 3 1.333 1.333-0.333 60.333v44.68l7.333 0.333 46 1.667-0.333-42.333v-8l-21 3.333-17 1.667-1.333-5.334z" fill="#333"/>
  <path d="m262.23 261.33 3.334 106-7.334-0.333 0.334-105 4.333-2.333" fill="#666"/>
  <path d="m582.11 254.15s7.756 3.35 27.499 0.353l3.702 0.882-0.354 21.682-5.641-1.41-13.749-5.641-11.457-15.866z" fill="#666"/>
  <path d="m756.06 263s-0.738 14.012-3.867 16.749v109.5l-89.141 16.052-10.586-24.655-2.737-99.727 3.52-21.118 102.81 3.196z" fill="url(#i)"/>
  <path d="m654.7 260.56-4.341 5.116-2.171-10.233 7.598-3.722s11.938 0.155 13.645 0.775-1.396 3.566-1.396 3.566l-13.335 4.498z"/>
  <path d="m592.24 325.42v50.789l0.843 3.371 19.809 0.843-0.631-56.478z" fill="url(#h)"/>



  <path d="m593.3 272.1 18.967-4.426 0.421 58.375-6.112 1.054-13.065 5.479-1.265-6.112z" fill="#333"/>
  <path d="m610.89 403.25-22.196-2.74 0.685-13.427 20.654 2.417c-1e-3 0-5.173 10.05 0.857 13.75z" fill="#999"/>
  <path d="m610.07 376.67-15.619-2.192s-7.125 6.166-4.248 12.058l18.635 1.78s-1.096-9.728 1.232-11.646z" fill="#999"/>
  <path d="m610.66 253.08v121.84l-2.48 9.302-0.311 8.37-1.24 10.85 10.541 0.311v-128.96l2.963-5.281 1.378-11.771-0.31-6.2-1.861 1.55z" fill="#333"/>
  <path d="m630.19 252.15h12.401l8.391 0.348-1.88 38.097 2.17 90.839 3.41 6.509 1.55 9.921-0.62 12.712-22.322-2.791-4.341-21.082z" fill="#333"/>
  <path d="m631.74 252.77-0.311 127.11s-0.621 8.989 4.029 9.61l-2.169 18.292-18.912-5.89 0.931-130.52-0.621-16.742c1e-3 1e-3 14.573-3.41 17.053-1.86z" fill="#979696"/>
  <path d="m635.01 390.64-27.266-1.097 2.328-12.879 21.356 2.288c1e-3 0-2.584 6.893 3.582 11.688z" fill="#999"/>
  <path d="m609.73 389.5-0.31-0.93c0.31 0.93 18.291 0 18.291 0 6.821 0.31 5.271 8.371 5.271 8.371-0.93-7.44-6.512-6.511-6.512-6.511l-16.432-0.93" fill="#333"/>
  <path d="m653.75 389.81 0.93 22.632 8.371-7.13-2.791-17.672z" fill="#4d4d4d"/>
  <path d="m650.91 379.88-20.724-0.931 2.914 11.472 21.696-0.62 4.531-1.86c1e-3 -1e-3 -2.912-7.752-8.417-8.061z" fill="#999"/>
  <path d="m647.86 273.54 1.24 104.48 4.96 4.03s4.34 4.03 5.271 5.891-4.961-55.186-4.65-90.839v-24.492l-6.82-4.341v5.271" fill="#4d4d4d"/>
  <path d="m713.38 54.79 20.748 8.972 7.851-1.122 13.942 2.917-3.849 6.615-5.047 9.533 2.804 144.12-21.87 0.561s5.048-108.79-7.289-108.23c-12.337 0.561-3.365 25.234-3.365 25.234l-12.337 1.122 0.562-83.553 7.85-6.168z" fill="url(#g)"/>
  <path d="m642.07 47.53 49.138 12.912v-10.76l-52.25-17.822-2.09 8.855z" fill="#1a1a1a"/>
  <path d="m647.16 230.66 35.404-3.582 1.918-83.174s-0.229-32.555-17.273-46.705c0 0-14.736 4.792-19.586 31.588l-4.159-1.617-4.852-85.01-0.692-9.933 1.825 13.151 50.382 13.876 1.387 10.857v159.16h-43.66" fill="url(#f)"/>
  <path d="m599.73 43.286v2.817l1.408 1.784 12.675-11.267 5.351 2.535 3.85-1.784 11.454-7.041 15.867 5.164 1.127-4.883-16.524-6.572-15.868 10.516-6.008-1.221z" fill="#979696"/>
  <path d="m595.66 57.792 1.132 7.358 2.265-0.566-2.547 159.62 5.093-1.132 3.397-11.038v-152.82l-2.547-2.831v-7.641z" fill="#666"/>
  <path d="m602.46 48.735v7.641l2.547 2.831v152.83l-3.397 9.906v14.434h11.604l0.283-197.26z" fill="#979696"/>
  <path d="m613.49 39.113 6.792 0.849-1.415 197.26-5.66-0.849z" fill="#333"/>
  <path d="m620.28 39.962 13.585-8.774-0.566 204.62-14.434 1.415z" fill="#979696"/>
  <path d="m633.87 31.188-0.566 204.62 14.15 0.849 0.316-192.74-4.844-3.39-3.679-0.849-0.283-8.208z" fill="#333"/>
  <path d="m597.93 133.07v14.774l7.192-6.998 9.525-5.831 4.665-0.681 13.607-8.261 12 3.83-0.336-15.105-11.762-3.304-13.217 8.844-5.444 0.389-7.775 6.707-1.653 0.097z" fill="#c8c8c8" opacity=".82"/>
  <path d="m599.34 66.256-0.145 7.432 6.123-3.888 0.291-2.041 10.11-6.707 4.568-0.291 13.219-7.095 10.418 2.195v-7.161l-5.072-1.158-6.221-1.166-12.344 7.484-4.568 0.097-11.178 8.359 0.195 0.68z" fill="#a7a7a7" opacity=".82"/>
  <path d="m645.81 129.91-12.917-2.986-13.561 8.311-4.593 0.219-9.625 5.906h-1.968l-6.561 6.999" fill="none" stroke="#000" stroke-linecap="round" stroke-linejoin="round" stroke-width="2"/>
  <path d="m644.69 115.35-11.797-2.754-13.561 8.311-4.593 0.219-9.625 5.906h-1.968l-6.561 6.999" fill="none" stroke="#000" stroke-linecap="round" stroke-linejoin="round" stroke-width="2"/>
  <path d="m599.34 73.417 5.543-3.465 0.924-2.541 9.703-6.468 5.082-0.231 12.705-6.93 10.627 2.079" fill="none" stroke="#000" stroke-linecap="round" stroke-linejoin="round"/>
  <path d="m599.34 66.256 5.543-3.465 0.924-2.541 9.703-6.468 5.082-0.231 12.705-6.93 10.627 2.079" fill="none" stroke="#000" stroke-linecap="round" stroke-linejoin="round"/>
  <path d="m595.66 57.792-3.203-1.601 8.902-8.665 0.78 1.715z" fill="#575757"/>
  <path d="m591.1 52.378 0.408 3.405 0.953 0.408 8.902-8.665-1.411-1.822z" fill="#979696"/>
  <path d="m647.37 133.28s0-26.231 19.834-36.468c0 0 15.998 9.577 17.918 44.766v86.76l-28.794 1.552 1.279-87.651c0-2e-3 -3.839-40.309-10.237-8.959z" fill="url(#e)"/>
  <path d="m690.38 66.006" fill="#484848"/>
  <path d="m688.02 228.98 2.643-165.03 12.333-3.23-2.643 167.38z" fill="#979696"/>
  <path d="m601.36 47.526 12.705-11.537-0.624 3.507s-12.394 9.354-17.78 18.294l-3.203-1.6 8.902-8.664z" fill="#575757"/>
  <path d="m598.32 42.069 1.482 2.027 14.576-9.198-1.715-2.494z"/>
  <path d="m598.32 42.069-2.26-2.65 16.525-10.757 0.078 3.742z" fill="#575757"/>
  <path d="m612.59 28.662 5.534 4.365 15.901-9.977 0.467 2.182-15.121 10.056-4.988-0.39-1.715-2.494z"/>
  <path d="m634.18 22.816 19.876 7.483-1.87 0.39-0.781 0.857-16.915-6.314-0.467-2.182z"/>
  <path d="m614.07 29.987 4.755-0.234 15.279-10.055 21.903 7.327-2.417 3.118-19.098-7.093-16.368 9.977z" fill="#878787"/>
  <path d="m613.81 36.62 5.916 1.409 14.459-9.108 16.993 5.727-1.033 1.503-16.277-4.963-13.585 8.774-6.792-0.849z" fill="#575757"/>
  <path d="m634.56 23.664-0.658 7.98" fill="none" stroke="#000"/>
  <path d="m619.37 35.288 0.36 2.741 0.557 1.933" fill="#979696" stroke="#000"/>
  <path d="m614.38 34.898-0.568 1.722-0.319 2.493-0.283 197.26" fill="none" stroke="#000"/>
  <path d="m644.92 129.91s-2.017-27.316 23.956-40.75c0 0 17.017 19.032 17.688 48.362" fill="none" stroke="#000" stroke-linecap="round" stroke-linejoin="round"/>
  <path d="m650.62 33.687 39.733 13.397-0.231 3.004-39.975-13.937z" fill="#979696"/>
  <path d="m690.35 47.084 10.857-3.695v3.003l-11.088 3.696z" fill="#979696"/>
  <path d="m701.21 43.389 19.636 6.468-1.387 2.772-18.249-6.237z" fill="#979696"/>
  <path d="m716.46 56.556 1.617-1.155 14.092 5.313-0.924 2.079z" fill="#979696"/>
  <path d="m732.16 60.714 9.702-1.155-0.231 3.465-10.395-0.231z" fill="#979696"/>
  <path d="m741.87 59.559 14.553 4.62-0.924 2.31-13.86-3.465z" fill="#979696"/>
  <path d="m690.67 63.951-0.547-13.863 12.741-4.203 0.139 14.836" fill="#979696"/>
  <path d="m680.45 47.031 1.167 75.478" fill="none" stroke="#000" stroke-width=".5"/>
  <path d="m670.34 44.697 0.777 57.192" fill="none" stroke="#000" stroke-width=".5"/>
  <path d="m848.91 122.12-87.93-43.964" fill="none" stroke="#979696"/>
  <path d="m849.3 129.9-95.32-54.467" fill="none" stroke="#979696"/>
  <path d="m848.52 133.4-96.48-57.578" fill="none" stroke="#979696"/>
  <path d="m848.52 143.91-97.654-66.14 98.433 60.304" fill="none" stroke="#979696"/>
  <path d="m849.3 148.96-99.21-70.025" fill="none" stroke="#979696"/>
  <path d="m848.14 169.58-97.66-89.089" fill="none" stroke="#979696"/>
  <path d="m748.92 82.436 99.988 98.432" fill="none" stroke="#979696"/>
  <path d="m840.05 181.83-91.96-103.74" fill="none" stroke="#979696"/>
  <path d="m843.98 203.14-93.11-125.37 86.94 136.58" fill="none" stroke="#979696"/>
  <path d="m702.66 76.964 146.36 106.55" fill="none" stroke="#666"/>
  <path d="m700.98 68.552 147.48 85.796" fill="none" stroke="#666"/>
  <path d="m599.48 269.3-0.56 55.514 10.654-1.121 1.682-55.515z" fill="#979696"/>
  <path d="m709.95 226.69 18.505-1.683 1.122-67.852s-0.561-37.571-10.654-41.496c0 0-10.094 5.608-10.094 21.309l1.121 89.722z" fill="url(#d)"/>
  <path d="m701.21 46.392 16.033 5.337-0.787 4.827-6.503 6.949v163.18l-9.594 1.411z" fill="#333"/>
  <path d="m653.05 239.9 195.84-19.61-0.21 14.69-197.7 17.52z" fill="url(#c)" stroke="#afb1b4"/>
  <path d="m654.96 239.9 9.289 10.109" fill="none" stroke="#000"/>
  <path d="m672.72 248.64-11.203-8.197 14.752 0.274" fill="none" stroke="#000"/>
  <path d="m671.63 240.44 7.924 7.377" fill="none" stroke="#000"/>
  <path d="m679.83 239.35 8.74 7.65" fill="none" stroke="#000"/>
  <path d="m693.76 238.53 10.109 7.651" fill="none" stroke="#000"/>
  <path d="m714.53 237.16 9.29 6.831" fill="none" stroke="#000"/>
  <path d="m724.64 236.07 10.383 7.377" fill="none" stroke="#000"/>
  <path d="m756.18 230.88 11.202 7.923" fill="none" stroke="#000" stroke-width="2"/>
  <path d="m770.54 230.06 10.383 7.377" fill="none" stroke="#000"/>
  <path d="m784.74 228.97 8.196 7.377" fill="none" stroke="#000"/>
  <path d="m800.05 228.15 10.929 7.651" fill="none" stroke="#000"/>
  <path d="m832.29 224.05 11.749 9.016" fill="none" stroke="#000"/>
  <path d="m669.72 241.81v6.284" fill="none" stroke="#000"/>
  <path d="m656.06 250.01 191.8-17.76" fill="none" stroke="#000"/>
  <path d="m757.69 230.06v8.196" fill="none" stroke="#000"/>
  <path d="m782.01 230.33-0.547 10.656" fill="none" stroke="#000"/>
  <path d="m812.61 227.06v11.47" fill="none" stroke="#000"/>
  <path d="m829.01 225.69-0.274 11.203" fill="none" stroke="#000"/>
  <path d="m683.65 239.35 13.115-0.546" fill="none" stroke="#000"/>
  <path d="m707.69 236.89 12.569-0.546" fill="none" stroke="#000"/>
  <path d="m743.76 233.89-8.469 0.272 10.109 7.377" fill="none" stroke="#000"/>
  <path d="m754.14 232.25 0.82 9.017" fill="none" stroke="#000"/>
  <path d="m773 237.98 7.104-7.377" fill="none" stroke="#000"/>
  <path d="m817.8 233.06 10.109-7.65" fill="none" stroke="#000"/>
  <path d="m831.74 231.7 13.116-9.015" fill="none" stroke="#000"/>
  <path d="m749.23 224.75 100.5-9.5" fill="none" stroke="#878787" stroke-width="2"/>
  <path d="m848.48 220-100.25 7v3z" fill="#333"/>
  <path d="m647.98 239.5 3 11.25 2.071-10.854 96.179-10.146-1.75-5.25-91.25 4.5-10.603 0.892z" fill="#333"/>
  <path d="m695.32 245.19 6.037-8.489" fill="none" stroke="#b3b3b3"/>
  <path d="m646.72 268.77-14.225-0.474-12.327 0.948" fill="none" stroke="#000"/>
  <path d="m611.16 266.4 21.336 1.897-12.367 1.204-8.884-0.65z"/>
  <path d="m648.17 269.21 13.642 1.239" fill="none" stroke="#000"/>
  <path d="m618.1 322.22 14.572 2.17 15.811-0.62" fill="none" stroke="#000"/>
  <path d="m620.58 333.38h12.711l16.122 2.48h-15.502l-1.239 8.061-0.931-8.061s-1.24-2.17-11.161-2.48z"/>
  <path d="m729.4 277.25c4.651 0.639 21.703 0.328 21.703 0.328l-39.374-2.17s0.31-3.41 0.62-9.301c0 0 1.86 7.751-10.541 7.751l-11.471-0.931 19.842 4.03c0 1e-3 14.569-0.346 19.221 0.293z"/>
  <path d="m585.23 258.04s8.37 9.92 8.061 16.741c0 0 5.271-5.89 16.741-6.2 0 0-13.641 2.79-15.501 0.62 0 0-3.411-8.991 7.44-13.021 0 0 8.99-2.48 10.852-2.48 0 0-14.262 0.932-15.812-2.479 0 0-3.721 3.721-5.27-0.62 0-2e-3 -0.93 6.819-6.511 7.439z"/>
  <path d="m592.98 352.29-1.24 19.222-2.171 14.262s-0.309-10.541 7.752-10.541c-2.116 0.452-4.341 12.923-4.341-22.943z"/>
  <path d="m621.2 263.93s0.311-7.131 8.371-7.44l-9.301-1.55s-3.101 4.029-8.061 3.1c1e-3 -1e-3 8.991-0.312 8.991 5.89z"/>
  <path d="m689.09 264.24 20.771 2.17" fill="none" stroke="#000"/>
  <path d="m706.76 265.79s5.271-1.55 5.271-4.65c0 0-1.859 4.962 20.772 6.821 0 0-22.013-3.72-21.393 4.03 0 0 1.24-5.891-4.65-6.201z"/>
  <path d="m731.26 267.03s18.911 3.101 22.941-2.79c0 0-0.619 4.341-0.93 8.371 1e-3 0-0.619-4.961-22.011-5.581z"/>
  <path d="m631.43 247.5 0.931 9.611 18.602 1.86s-1.24-5.89 8.061-6.82l-27.594-4.651z"/>
  <path d="m664.6 252.15 53.945 5.271 37.514 5.58-4.031 1.86s-37.822-3.41-50.534-2.79c0 0-33.483-5.581-43.404 2.17 0 0-4.96 2.48-4.65 7.131l-4.03-1.551s0.31 1.86 0.62-4.96c-2e-3 0 0.929-12.4 14.57-12.711z"/>
  <path d="m631.43 378.95s-0.62 9.61 4.03 10.541c0 0-1.55 8.371-1.55 14.882l-0.931-14.262c1e-3 0-3.099-4.341-1.549-11.161z"/>
  <path d="m591.74 324.7 0.62 12.091s17.671 1.551 18.911-13.641l-19.531 1.55z" fill="#666"/>
  <path d="m598.56 352.91v23.252s-1.239 6.82-3.41 10.541c0 0-5.58 0.62-5.58-4.03l-0.311 17.052s0-11.781 1.86-11.781l6.2 0.62 9.611 0.93-0.311 13.951s0.621-13.95 8.062-13.021c0 0-5.581-0.312-5.581-7.441l1.551-8.061-1.551 1.86-2.17 9.61s-1.24 2.171-9.301 0.311l2.17-10.541c2e-3 0 0.312-22.632-1.239-23.252z"/>
  <path d="m610.04 389.5s9.302-1.24 8.062-13.642c0 0 7.752-1.24 10.541 0.93 0 0-8.681-1.55-8.681 1.551 0 0 0.619 12.712-9.922 11.161z"/>
  <path d="m593.36 374.75" fill="#333"/>
  <path d="m850.17 251.41-110.15 15.911-89.952-0.843 3.666-16.904 195.61-17.943z" fill="url(#l)"/>
  <path d="m848.9 251.7-24.48-12.24" fill="none" stroke="#000" stroke-width=".5"/>
  <path d="m840.94 254.14-43.906-14.522 0.546-11.476" fill="none" stroke="#000"/>
  <path d="m732.23 245.67 34.26 16.13" fill="none" stroke="#000"/>
  <path d="m768.82 242.42 34.267 15.66" fill="none" stroke="#000"/>
  <path d="m754.71 243.97 27.289 15.349" fill="none" stroke="#000"/>
  <path d="m783.24 241.18 33.027 15.35" fill="none" stroke="#000"/>
  <path d="m835.49 237.46 14.11 12.714" fill="none" stroke="#000"/>
  <path d="m755.33 260.87 93.187-8.683" fill="none" stroke="#000"/>
  <path d="m794.25 257.46v1.706" fill="none" stroke="#000"/>
  <path d="m787.89 257.92v1.706" fill="none" stroke="#000"/>
  <path d="m781.38 258.39v1.706" fill="none" stroke="#000"/>
  <path d="m829.76 254.05 0.155 2.171" fill="none" stroke="#000"/>
  <path d="m844.64 252.65v2.171" fill="none" stroke="#000"/>
  <path d="m838.75 253.74v1.862" fill="none" stroke="#000"/>
  <path d="m653.25 259.81" fill="url(#a)"/>
  <path d="m756.06 263" fill="url(#a)"/>
  <path d="m653.25 259.81 100.38 3.387 95.047-8.838" fill="none" stroke="#000"/>
  <path d="m756.06 263" fill="url(#a)"/>
  <path d="m592.62 258.85s5.817 4.231 6.17 11.635l0.705 0.176s-4.212-13.44 2.478-14.477c0 0-8.648-1.917-9.353 2.666z"/>
  <path d="m610.43 235.05-2.468 19.743 10.576-0.881 0.334-16.693z" fill="#272727"/>
  <path d="m618.87 237.22 14.298-2.346-0.528 17.452-14.104 1.587z" fill="#666"/>
  <path d="m633.3 235.81 14.672 0.127 4.407 16.217h-20.978z" fill="#666"/>
  <path d="m306.23 324.33s76.667-47.333 288.67-58l-12-12s-191.33 14.667-312.67 70h36z" fill="#333"/>
  <path d="m596.23 212.33 9.333-6 6.667-2h6.667l14.666-2.667 13.334 1.333v13.334l-13.334-0.667-20.666 2.667-11.295 3.606-6.705 4.394" fill="#c8c8c8" opacity=".82" stroke="#000" stroke-width="1.5"/>
  <path d="m601.32 242.34h-6.346l0.353-15.865 5.993-4.054z" fill="#999"/>
  <path d="m271.56 287h-8.334l-4.511 1.588" fill="none" stroke="#000"/>
  <path d="m284.56 288.33 6.666 0.333" fill="none" stroke="#000"/>
  <path d="m284.56 292" fill="none" stroke="#000"/>
  <path d="m301.9 288.33h8" fill="none" stroke="#333"/>
  <path d="m258.9 309.33 4.66 0.67" fill="none" stroke="#333"/>
  <path d="m258.9 314 4.333 0.334" fill="none" stroke="#333"/>
  <path d="m271.56 292.67-9.334-0.333-3.917 1.536" fill="none" stroke="#000"/>
  <path d="m263.23 256.33 47.646 2.158" fill="none" stroke="#000"/>
  <path d="m261.9 256-4 2" fill="none" stroke="#000"/>
  <path d="m304.35 331.06 6.652 0.156" fill="none" stroke="#000"/>
  <path d="m267.23 339.67h-6.333s4.333-0.333 4.333 3.667l2-3.667z"/>
  <path d="m258.56 262 3.735-2.033" fill="#666" stroke="#000" stroke-width=".5"/>
  <path d="m274.05 324.2s-1e-3 -0.784 0.014-0.784c0 0 12.892-6.25 12.914-6.25 0 0 0.027-2.116 0.037-2.116 0.024 1e-3 12.593-1.832 12.652-1.831 0.012 0 0.07-4.44 0.077-4.44l12.763-1.412c2e-3 0 0.087-5.194 0.091-5.194 0.026 0 13.134 4.375 13.186 4.376l0.207-11.83c0.067 1e-3 13.341 6.158 13.341 6.158s0.179-10.344 0.181-10.344c0.044 1e-3 13.018 5.131 13.075 5.132l0.098-5.59c0.036 0 12.84 6.251 12.84 6.251l0.247-14.187 12.784 2.373 0.091-5.162c0.05 1e-3 12.453 7.558 12.477 7.558 0 0 0.079-5.149 0.09-5.149s12.631 1.517 12.663 1.518c0 0 0.212-13.157 0.229-13.157l13.017 4.849c0.039 1e-3 0.1-5.649 0.1-5.649l12.965 4.366c0.033 0-8e-3 -1.118 0.02-1.118l13.092-1.446 0.191-10.968c0.068 1e-3 12.799 10.931 12.799 10.931s0.11-8.127 0.142-8.126c0.057 0 12.502 1.909 12.502 1.909l0.103-5.886c0.054 1e-3 12.792 10.533 12.792 10.533 0.038 1e-3 0.21-12.177 0.212-12.177 0.066 1e-3 12.422 11.418 12.484 11.419l0.284-16.252c0.032 1e-3 13.167 6.647 13.167 6.647l0.115-6.662 13.25 2.844s-0.02-0.398 8e-3 -0.397c0.021 0 12.541 7.488 12.564 7.488l0.287-16.52s12.803 10.676 12.826 10.676 0.105-6.077 0.105-6.077l13.227 0.346 0.137-7.833c0.029 0 12.896 11.309 12.896 11.309s0.104-5.939 0.104-5.939c0.055 1e-3 12.949 9.443 13.002 9.444l0.188-10.76" fill="none" stroke="#808080" stroke-linecap="round" stroke-linejoin="round" stroke-width=".4"/>
  <path d="m274.85 319.45s0.025-1.612 0.028-1.612l13.049-1.856 0.016-0.921c0.044 1e-3 12.792-7.896 12.828-7.895 1e-3 0 0.02-1.509 0.026-1.509l12.997-3.549c6e-3 0 0.035-1.967 0.035-1.967l12.934 1.239s0.021-1.625 0.028-1.625l13.063-5.823s0.094-5.553 0.097-5.553l13.319 0.243c2e-3 0 0.106-6.56 0.114-6.56s13.019 6.49 13.066 6.491c4e-3 0 0.121-6.874 0.121-6.874l13.06-1.096s0.019-1.437 0.025-1.437l13.08 0.893 0.047-2.705c0.071 1e-3 12.698-7.415 12.771-7.414 2e-3 0 1e-3 -0.403 8e-3 -0.403l13.042 0.94 0.015-0.84 13.469-1.684c8e-3 0 0.025-1.414 0.025-1.414s12.768-1.204 12.77-1.204 0.02-1.409 0.025-1.409l12.959 1.258 2e-3 -0.115 13.072-4.587c4e-3 0 0.019-1.404 0.024-1.403l13.363 2.646 0.04-2.309 12.994 1.475s0.172-9.867 0.173-9.867l12.92 7.209c6e-3 0 0.088-5.016 0.088-5.016l13.326-1.581 0.025-1.517 13.436 0.576 0.023-1.394 13.414-0.197c2e-3 0 0.025-1.395 0.025-1.395 0.049 1e-3 13.127-0.115 13.141-0.115 0 0 0.02-1.429 0.023-1.429s12.688 4.4 12.734 4.401c4e-3 0 0.092-5.391 0.094-5.391l12.615 4.23s0.125-7.469 0.131-7.469" fill="none" stroke="#000" stroke-linecap="round" stroke-linejoin="round" stroke-width=".4"/>
  <path d="m273.31 325.25s0.019-2.248 0.04-2.248c0 0 12.857-4.18 12.877-4.179 0 0 0.023-1.495 0.026-1.495 0.025 1e-3 12.619-3.436 12.68-3.435 3e-3 0 0.024-1.486 0.026-1.486l12.808-4.027s2e-3 -0.189 3e-3 -0.189l13.274-0.629 0.112-6.403 13.436 0.705 0.079-4.541c0.042 0 13.131-1.125 13.185-1.124l0.025-1.448c0.032 1e-3 12.905 2.519 12.905 2.519l0.139-7.982 12.834-0.351 0.024-1.431c0.043 1e-3 12.618-1.828 12.64-1.828 0 0 0.023-1.428 0.025-1.428l12.691-0.062s0.109-6.547 0.113-6.547l13.068 1.9c8e-3 0 0.025-1.421 0.025-1.421l13.066-1.43c6e-3 0 0.02-1.417 0.025-1.417l13.123-3.279 0.074-4.206c0.055 1e-3 12.916 4.158 12.916 4.158s0.018-1.347 0.023-1.347c0.057 1e-3 12.561-1.405 12.561-1.405l0.023-1.404c0.043 0 12.932 2.577 12.932 2.577 6e-3 0 0.092-5.362 0.094-5.362 0.053 1e-3 12.553 4.587 12.602 4.588l0.164-9.412c0.031 0 13.236 2.766 13.236 2.766l0.023-1.397 13.307-0.452s0.02-1.396 0.025-1.396c0.02 1e-3 12.613 3.534 12.633 3.534l0.168-9.658s12.918 4.358 12.938 4.359c2e-3 0 0.023-1.391 0.023-1.391 0.037 0 13.299-4.901 13.318-4.901l0.016-0.888c0.021 1e-3 13.014 4.555 13.014 4.555l0.023-1.387c0.047 1e-3 13.043 4.449 13.09 4.45l0.055-3.072" fill="none" stroke="#000" stroke-linecap="round" stroke-linejoin="round" stroke-width=".4"/>
  <path d="m258.61 323.5-39.636 19.73-1.569 6.797 40.945-21.246" fill="#808080" stroke="#000" stroke-width="1.5"/>
  <path d="m258.61 323.5c13.073 0.23 26.123 0.352 39.202 0.352 3.012 0 11.146-1.425 12.185 1.76 0.273 0.835-0.228 1.921 0.027 2.776 0.32 1.077 1.346 1.581 0.981 2.827-2.674 0.824-2.292-2.524-3.476-3.32-0.658-0.441-3.055-0.355-3.36 0.181-0.324 0.572 0.158 2.425 0.185 2.983 0.104 2.222 0.019 4.484 3e-3 6.707-6e-3 0.908 0.341 4.588-0.705 5.327-2.071 1.463-2.736-3.888-2.817-5.053-0.22-3.16 0.269-6.912 1.053-9.762-1.22-0.053-2.626-0.318-3.49 0.741-0.86-1.259-1.414-2.822-3.153-1.49-0.963 0.737-1.025 2.021-1.268 3.052-0.486 2.071-1.08 4.062-2.653 5.444-0.619-1.667 0.391-3.975-0.232-5.688-0.585-1.608-3.946-2.76-3.858-0.199-1.748-1.403-4.925 0.233-6.705 0.78 0.242 1.222-0.031 2.318-0.83 3.262-0.07 0.083-2.036 2.175-1.945 2.133-1.068 0.501-2.583-1.025-2.935-1.896-0.66-1.636 0.625-2.488-1.385-3.496-2.989-1.498-3.383 1.551-4.934 3.333-0.717 0.823-0.944 1.46-1.226 2.925-0.366 1.902-0.32 4.3-0.919 6.048-0.754-1.934-0.584-3.728-0.707-5.786-0.114-1.924-0.729-2.012-1.592-3.56-0.708-1.271-0.343-2.829-0.686-4.231-0.402-1.644-1.173-3.073-0.736-4.888-1.577-0.596-3.281-0.673-4.903-1.262" fill="#1a1a1a"/>
  

  
  <g opacity=".7">
   <path d="m650.6 291.29s-0.545 0.171-0.483-0.186l-0.19-0.304-0.51-0.253 0.172-0.197s1.393 0.052 16.821 1.176c0 0 6.175 0.378 14.501 1.049 0 0 60.333 4.928 64.855 5.419 0 0-37.817-3.23-40.208-3.366 0 0 36.168 3.065 38.936 3.403 0 0-35.079-2.999-38.214-3.104 0 0 32.29 2.761 36.188 3.221 0 0-6.194-0.558-7.853-0.674l2.886 0.277-4.652-0.381-2.683-0.251s7.271 0.688 7.775 0.779c0 0 3.325 0.207-9.816-0.83 0 0-31.053-2.858-77.525-5.778z"/>
   <path d="m649.13 290.23s18.776 1.35 37.003 2.722c0 0 39.61 3.22 43.842 3.597 0 0 11.48 0.938 18.289 1.576" fill="none" stroke="#939598" stroke-width=".0022"/>
   <path d="m706.61 294.62c-3.195-0.292-27.216-2.206-27.216-2.206-9.59-0.784-30.262-2.184-30.262-2.184" fill="none" stroke="#000" stroke-width=".0022"/>
   <path d="m707.37 294.97s28.326 2.367 34.52 2.925" fill="none" stroke="#000" stroke-width=".0022"/>
   <path d="m699.35 294.74s32.599 2.756 35.338 3.024" fill="none" stroke="#939598" stroke-width=".0022"/>
  </g>
  <g opacity=".7">
   <path d="m650.67 308.92s-0.56 0.186-0.507-0.172l-0.207-0.3-0.536-0.239 0.171-0.201s1.446 0.016 17.482 0.731c0 0 6.416 0.215 15.071 0.666 0 0 62.726 3.335 67.432 3.707 0 0-39.321-2.232-41.805-2.305 0 0 37.605 2.11 40.487 2.375 0 0-36.476-2.072-39.729-2.096 0 0 33.574 1.908 37.632 2.266 0 0-6.441-0.395-8.164-0.466l3.001 0.2-4.837-0.259-2.79-0.179s7.562 0.495 8.088 0.573c0 0 3.455 0.119-10.207-0.57 0 1e-3 -32.294-2.038-80.582-3.731z"/>
   <path d="m649.12 307.9s19.516 0.854 38.461 1.745c0 0 41.181 2.174 45.581 2.439 0 0 11.937 0.634 19.017 1.093" fill="none" stroke="#939598" stroke-width=".0022"/>
   <path d="m708.87 310.77c-3.324-0.207-28.296-1.487-28.296-1.487-9.97-0.531-31.452-1.385-31.452-1.385" fill="none" stroke="#000" stroke-width=".0022"/>
   <path d="m709.67 311.1s29.45 1.619 35.892 2.014" fill="none" stroke="#000" stroke-width=".0022"/>
   <path d="m701.34 311.08s33.895 1.896 36.744 2.092" fill="none" stroke="#939598" stroke-width=".0022"/>
  </g>
  <g opacity=".7">
   <path d="m650.69 332.4s-0.545 0.213-0.511-0.146l-0.22-0.289-0.544-0.212 0.16-0.209s1.434-0.059 17.361-0.156c0 0 6.369-0.111 14.97-0.1 0 0 62.33 0.146 67.013 0.279 0 0-39.081-0.234-41.546-0.18 0 0 37.374 0.199 40.243 0.317 0 0-36.252-0.219-39.479-0.077 0 0 33.369 0.202 37.408 0.354 0 0-6.402-0.067-8.114-0.052l2.984 0.048-4.806-0.013-2.775-0.037s7.521 0.11 8.045 0.162c0 0 3.43-0.057-10.145-0.052 2e-3 1e-3 -32.104-0.396-80.044 0.363z"/>
   <path d="m649.1 331.46s19.383-0.139 38.203-0.209c0 0 40.92 0.081 45.294 0.123 0 0 11.861 0.027 18.901 0.127" fill="none" stroke="#939598" stroke-width=".0022"/>
   <path d="m708.46 331.29c-3.305-0.038-28.116-0.05-28.116-0.05-9.907-0.024-31.239 0.214-31.239 0.214" fill="none" stroke="#000" stroke-width=".0022"/>
   <path d="m709.27 331.59s29.268 0.122 35.671 0.189" fill="none" stroke="#000" stroke-width=".0022"/>
   <path d="m701.02 331.99s33.686 0.173 36.519 0.224" fill="none" stroke="#939598" stroke-width=".0022"/>
  </g>
  <path d="m649.1 358.01 101.09-10.33"/>
  <g opacity=".7">
   <path d="m650.73 358.42s-0.517 0.268-0.52-0.094l-0.247-0.265-0.559-0.155 0.137-0.225s1.409-0.204 17.121-1.931c0 0 6.275-0.762 14.767-1.63 0 0 61.539-6.228 66.175-6.574 0 0-38.6 3.764-41.027 4.069 0 0 36.912-3.624 39.756-3.799 0 0-35.806 3.489-38.976 3.96 0 0 32.958-3.212 36.96-3.474 0 0-6.326 0.588-8.015 0.778l2.951-0.258-4.745 0.479-2.742 0.246s7.434-0.659 7.956-0.661c0 0 3.381-0.407-10.018 0.985 1e-3 3e-3 -31.731 2.891-78.974 8.549z"/>
   <path d="m649.06 357.64s19.119-2.119 37.688-4.115c0 0 40.4-4.104 44.723-4.509 0 0 11.71-1.186 18.669-1.807" fill="none" stroke="#939598" stroke-width=".0022"/>
   <path d="m707.63 351.41c-3.266 0.3-27.758 2.825-27.758 2.825-9.781 0.989-30.814 3.407-30.814 3.407" fill="none" stroke="#000" stroke-width=".0022"/>
   <path d="m708.47 351.62s28.901-2.871 35.229-3.459" fill="none" stroke="#000" stroke-width=".0022"/>
   <path d="m700.36 352.86s33.269-3.271 36.07-3.511" fill="none" stroke="#939598" stroke-width=".0022"/>
  </g>
  <path d="m660.23 399.9 91.273-20.149"/>
  <g opacity=".7">
   <path d="m661.77 400.14s-0.439 0.315-0.486-0.042l-0.259-0.238-0.531-0.099 0.098-0.237s1.265-0.34 15.437-3.592c0 0 5.651-1.37 13.317-3.062 0 0 55.57-12.204 59.771-13.002 0 0-34.873 7.514-37.058 8.055 0 0 33.346-7.21 35.927-7.663 0 0-32.35 6.968-35.193 7.746 0 0 29.777-6.414 33.409-7.066 0 0-5.72 1.203-7.242 1.558l2.67-0.544-4.285 0.939-2.48 0.513s6.725-1.382 7.203-1.435c0 0 3.044-0.735-9.05 1.958-1e-3 -1e-3 -28.696 5.971-71.248 16.211z"/>
   <path d="m660.15 399.53s17.241-3.975 33.996-7.772c0 0 36.479-8.027 40.387-8.854 0 0 10.574-2.322 16.868-3.62" fill="none" stroke="#939598" stroke-width=".0022"/>
   <path d="m713 387.62c-2.952 0.617-25.063 5.521-25.063 5.521-8.833 1.939-27.79 6.397-27.79 6.397" fill="none" stroke="#000" stroke-width=".0022"/>
   <path d="m713.79 387.74s26.105-5.679 31.825-6.881" fill="none" stroke="#000" stroke-width=".0022"/>
   <path d="m706.52 389.76s30.054-6.504 32.589-7.016" fill="none" stroke="#939598" stroke-width=".0022"/>
  </g>
  <path d="m651.36 377.13 98.828-13.09" stroke="#000" stroke-width=".09"/>
  <g fill="none" stroke="#000" stroke-width="1.5">
   <path d="m656.9 148.33 10-5.333h32.666l8.667 0.666"/>
   <path d="m748.9 153.67-10-1.333-28.667 5.333"/>
   <path d="m711.57 146.33 20.667-4h15.333"/>
   <path d="m710.23 131.67h-18.667l-8-1.333-8.666 1.333-18 4"/>
   <path d="m591.22 52.78 2.184 3.931 7.644-7.425"/>
   <path d="m602.14 46.883 10.263-7.644 0.219-5.023"/>
   <path d="m620.92 39.458 11.8-8.518"/>
   <path d="m634.25 29.192v-4.804"/>
   <path d="m632.72 24.606-12.887 9.828-6.988-4.805-0.219 4.587-13.541 8.954-1.747-4.368"/>
   <path d="m635.12 23.296 16.38 6.77-1.747 4.805"/>
   <path d="m691.47 51.033 9.173-4.805 17.035 5.679"/>
   <path d="m700.64 46.228v-2.621"/>
   <path d="m651.28 34.653 19.22 6.115"/>
   <path d="m741.26 59.332-0.438 3.932"/>
   <path d="m755.68 64.574-0.218 2.403-3.058 1.091 0.437 1.747"/>
   <path d="m605.64 68.287 8.517-6.552"/>
   <path d="m620.05 54.527 0.219 4.15"/>
  </g>
  <path d="m311.28 260.14v41.441" fill="none" stroke="#000" stroke-width=".5"/>
  <path d="m313.12 260.44 2.763 39.292" fill="none" stroke="#000" stroke-width=".5"/>
  <path d="m316.5 262.59 4.298 34.688" fill="none" stroke="#000" stroke-width=".5"/>
  <path d="m321.72 265.05 1.842 32.539" fill="none" stroke="#000" stroke-width=".5"/>
  <path d="m327.24 266.89 2.762 28.241" fill="none" stroke="#000" stroke-width=".5"/>
  <path d="m332.16 268.43 1.228 24.865" fill="none" stroke="#000" stroke-width=".5"/>
  <path d="m336.76 270.88 1.53 20.763c-38.257-3.565-67.76-28.531-67.76-28.531" fill="none" stroke="#000" stroke-width=".5"/>
  <path d="m342.9 272.42-0.614 18.418s-15.349 1.534-31.004-14.428" fill="none" stroke="#000" stroke-width=".5"/>
  <path d="m347.5 273.95-0.921 15.655" fill="none" stroke="#000" stroke-width=".5"/>
  <path d="m689.4 247.79-44.74-185.98" fill="none" stroke="#000"/>
  <path d="m709.24 246.23-63.42-190.25" fill="none" stroke="#000"/>
  <path d="m727.52 243.9-78.58-192.59" fill="none" stroke="#000"/>
  <path d="m751.26 242.34-103.88-195.7" fill="none" stroke="#000"/>
  <path d="m795.61 234.56-149.4-191.42 122.94 195.7" fill="none" stroke="#000"/>
  <path d="m848.13 229.11-201.92-185.97 180.53 192.2" fill="none" stroke="#000"/>
  <path d="m848.91 208.88-202.7-165.74" fill="none" stroke="#000"/>
  <path d="m848.52 190.2-201.14-143.56" fill="none" stroke="#000"/>
  <path d="m808.45 219-61.08-135.79 77.42 133.45" fill="none" stroke="#333"/>
  <path d="m772.27 222.11-33.46-82.48" fill="none" stroke="#333"/>
  <path d="m792.5 223.66-44.74-82.09" fill="none" stroke="#333"/>
  <path d="m748.92 154.41 29.568 67.307" fill="none" stroke="#333"/>
  <path d="m819.73 217.05-71.58-96.88" fill="none" stroke="#333"/>
  <path d="m710.32 58.809 138.54 43.42" fill="#FFF" stroke="#000" stroke-width=".5"/>
  <path d="m708.13 57.909 0.6-1.909l140.43 45.273-0.598 1.909-140.43-45.273z" fill="#FFF" stroke="#000" stroke-width=".5"/>
  <path d="m641.65 38.122 207.44 65.798" fill="#FFF" stroke="#000" stroke-width=".7731"/>
  <path d="m641.23 39.662 1.5-1.162 206.36 65.42-0.424 1.538l-207.44-65.798z" fill="#FFF" stroke="#000" stroke-width=".7731"/>
  <path d="m680.23 52 3.5 173" fill="none" stroke="#000" stroke-width=".5"/>
  <path d="m670.23 50.5 7 188" fill="none" stroke="#000" stroke-width=".5"/>
  <path d="m690.23 50.5-1 186.5" fill="none" stroke="#000" stroke-width=".5"/>
  <path d="m760.73 224-0.5-146.5" fill="none" stroke="#000" stroke-width=".5"/>
  <path d="m753.23 225 1.5-149.5" fill="none" stroke="#000" stroke-width=".5"/>
  <path d="m748.23 223-37.5-150.5" fill="none" stroke="#000" stroke-width=".5"/>
  <path d="m848.73 131.5-200-88" fill="none" stroke="#000"/>
  <path d="m848.73 139-199-93" fill="none" stroke="#000"/>
  <path d="m849.23 153-196.5-104.5" fill="none" stroke="#000"/>
  <path d="m850.23 173-200.5-124.5" fill="none" stroke="#000"/>
  <path d="m849.23 122-99.5-46.5" fill="none" stroke="#333"/>
  <path d="m849.73 128.5-98.5-48.5" fill="none" stroke="#333"/>
  <path d="m848.23 149-99.5-67.5 91.5 100.5" fill="none" stroke="#333"/>
  <path d="m848.23 170.5-99.5-89" fill="none" stroke="#333"/>
  <path d="m847.73 160.5-99-82.5 100.5 58" fill="none" stroke="#333"/>
  <path d="m848.73 143-100-65 100 101.5-102.5-100" fill="none" stroke="#333"/>
  <path d="m792.73 87.5-0.5 131" fill="none" stroke="#333"/>
  <path d="m800.23 90.5 0.5 128.5" fill="none" stroke="#333"/>
  <path d="m807.73 92.5-0.836 124.55-58.748-89.095" fill="none" stroke="#333"/>
  <path d="m815.23 216.5 0.5-119.5" fill="none" stroke="#333"/>
  <path d="m823.73 97.5-0.5 118" fill="none" stroke="#333"/>
  <path d="m831.23 99 0.5 118" fill="none" stroke="#333"/>
  <path d="m841.23 103.5" fill="none" stroke="#333"/>
  <path d="m748.73 81.5 96 123.5" fill="none" stroke="#333"/>
  <path d="m835.23 216-86.5-131" fill="none" stroke="#333"/>
  <path d="m839.73 215.5 1.5-112" fill="none" stroke="#333"/>
  <path d="m547.23 533" fill="none" stroke="#00457c"/>
  <path d="m395.17 280.1c89.2-38.3 176.61-174.25 196.89-207.58 2.909-4.76 4.444-7.41 4.448-7.418l2.812 1.628c-0.131 0.089-99.173 171.57-202.87 216.36l-1.286-2.988z" fill="#FFF" stroke="#000"/>
  <path d="m598.99 80.199-80.7 171.4" fill="none" stroke="#333" stroke-width=".75"/>
  <path d="m524.72 251.24 73.91-169.61" fill="none" stroke="#333" stroke-width=".75"/>
  <path d="m566.49 245.53 31.067-107.84-37.852 108.91 35.708-33.565" fill="none" stroke="#333" stroke-width=".75"/>
  <path d="m515.07 251.95 82.49-61.41" fill="none" stroke="#333" stroke-width=".75"/>
  <path d="m442.59 256.24v9.284" fill="none" stroke="#333" stroke-width=".75"/>
  <path d="m446.16 253.38 0.357 8.927" fill="none" stroke="#333" stroke-width=".75"/>
  <path d="m450.08 250.88v12.498" fill="none" stroke="#333" stroke-width=".75"/>
  <path d="m454.01 246.24v14.283" fill="none" stroke="#333" stroke-width=".75"/>
  <path d="m457.23 244.1 0.714 16.782" fill="none" stroke="#333" stroke-width=".75"/>
  <path d="m461.16 240.17 1.785 20.71" fill="none" stroke="#333" stroke-width=".75"/>
  <path d="m464.37 238.39 2.499 21.067" fill="none" stroke="#333" stroke-width=".75"/>
  <path d="m472.94 229.82 1.787 28.567" fill="none" stroke="#333" stroke-width=".75"/>
  <path d="m480.44 223.39 2.14 34.63 116.05-187.1-120.33 187.46-1.08-31.42" fill="none" stroke="#333" stroke-width=".75"/>
  <path d="m487.58 215.18 1.429 42.136 109.62-181.4" fill="none" stroke="#333" stroke-width=".75"/>
  <path d="m492.22 211.6 2.5 43.564" fill="none" stroke="#333" stroke-width=".75"/>
  <path d="m495.79 207.32 2.5 47.849 101.05-176.4-95.341 175.33" fill="none" stroke="#333" stroke-width=".75"/>
  <path d="m500.43 201.61 2.5 51.419" fill="none" stroke="#333" stroke-width=".75"/>
  <path d="m507.93 192.68 4.284 58.561" fill="none" stroke="#333" stroke-width=".75"/>
  <path d="m512.57 186.97 4.643 63.917" fill="none" stroke="#333" stroke-width=".75"/>
  <path d="m516.5 183.75 5.356 66.774" fill="none" stroke="#333" stroke-width=".75"/>
  <path d="m519.72 179.11 5.356 69.274" fill="none" stroke="#333" stroke-width=".75"/>
  <path d="m524 174.11 3.571 76.414 71.774-164.26" fill="none" stroke="#333" stroke-width=".75"/>
  <path d="m527.93 169.83 4.286 80.699 65.702-155.33" fill="none" stroke="#333" stroke-width=".75"/>
  <path d="m531.86 164.83 8.213 84.627 58.203-146.76" fill="none" stroke="#333" stroke-width=".75"/>
  <path d="m535.07 161.26 9.641 87.128" fill="none" stroke="#333" stroke-width=".75"/>
  <path d="m539.71 155.19 6.785 92.483 52.133-138.19" fill="none" stroke="#333" stroke-width=".75"/>
  <path d="m543.28 150.54 8.213 97.839 47.135-132.12" fill="none" stroke="#333" stroke-width=".75"/>
  <path d="m547.57 144.12 9.642 103.2 40.707-122.84" fill="none" stroke="#333" stroke-width=".75"/>
  <path d="m551.14 139.83 13.925 106.05" fill="none" stroke="#333" stroke-width=".75"/>
  <path d="m559.5 127.37 10.164 117.8" fill="none" stroke="#333" stroke-width=".75"/>
  <path d="m564.58 120.9 9.408 124.27 23.569-102.48-128.91 117.84 0.713-26.067" fill="none" stroke="#333" stroke-width=".75"/>
  <path d="m569.2 113.51 9.788 131.66 18.211-89.27-109.27 99.983-3.929-36.78" fill="none" stroke="#333" stroke-width=".75"/>
  <path d="m574.28 106.58 8.635 137.52 13.568-63.561-87.842 72.845-4.642-56.419" fill="none" stroke="#333" stroke-width=".75"/>
  <path d="m579.37 98.729 5.695 145.37 11.426-43.565" fill="none" stroke="#333" stroke-width=".75"/>
  <path d="m583.52 92.723 1.537 151.38" fill="none" stroke="#333" stroke-width=".75"/>
  <path d="m588.63 244.28-0.176 11.988 21.153-1.763 1.234-19.743-22.034 7.227z" fill="#333"/>
  <path d="m265.47 259.15 2e-3 2e-3 1.511-1.309c4e-3 -2e-3 0.371 0.429 1.194 1.231s2.082 1.961 3.805 3.351c3.448 2.785 8.757 6.511 16.171 10.244 14.824 7.463 38.061 14.957 71.69 14.959 7.27 0 15.026-0.352 23.291-1.126l0.188 1.99c-8.323 0.78-16.144 1.136-23.478 1.136-67.866 0.012-94.249-30.314-94.374-30.478z" fill="#FFF" stroke="#000" stroke-width=".5"/>
  <path d="m285.7 258.88 0.933-1.174c6e-3 2e-3 1.739 1.388 5.098 3.555s8.325 5.107 14.728 8.171c12.806 6.126 31.358 12.752 54.326 14.74l-0.129 1.494c-46.264-4.008-74.755-26.627-74.956-26.786zm-1e-3 -1e-3v2e-3 -2e-3z" fill="#FFF" stroke="#000" stroke-width=".5"/>
  <path d="m293.33 258.94 0.775-1.283c6e-3 4e-3 2.6 1.57 6.937 3.937s10.405 5.521 17.312 8.671c13.806 6.312 31.011 12.594 44.336 12.584l0.693-3e-3 0.012 1.498-0.705 6e-3c-27.431-0.044-69.118-25.292-69.36-25.41zm-1e-3 0v2e-3 -2e-3z" fill="#FFF" stroke="#000" stroke-width=".5"/>
  <path d="m310.28 259.87 0.597-1.376c0.025 9e-3 11.556 5.01 25.182 10.02 13.607 5.013 29.371 10.008 37.428 9.991 0.653 0 1.253-0.033 1.794-0.098l0.177 1.488c-0.609 0.072-1.268 0.107-1.971 0.107-17.004-0.042-63.138-20.127-63.207-20.132z" fill="#FFF" stroke="#000" stroke-width=".5"/>
  <path d="m309.25 204.15" fill="none" stroke="#000" stroke-width="1.5"/>
  <path d="m398 196.16" fill="#FFF" stroke="#000" stroke-width=".5"/>
  <path d="m222.22 340.92s36.949-70.104 36.312-76.514" fill="none" stroke="#000" stroke-width=".5"/>
  <path d="m226.11 340.28s28.206-52.522 32.745-64.194" fill="none" stroke="#000" stroke-width=".5"/>
  <path d="m258.21 307.53-10.699 22.047" fill="none" stroke="#000" stroke-width=".5"/>
  <path d="m258.21 271.54-33.718 68.733" fill="none" stroke="#000" stroke-width=".5"/>
  <path d="m255.94 324.39-0.648-48.956" fill="none" stroke="#000" stroke-width=".5"/>
  <path d="m251.73 281.59 2.27 43.768" fill="none" stroke="#000" stroke-width=".5"/>
  <path d="m247.84 292.29 3.567 35.015 7.132-12.321" fill="none" stroke="#000" stroke-width=".5"/>
  <path d="m244.59 300.4 0.973 29.829" fill="none" stroke="#000" stroke-width=".5"/>
  <path d="m240.7 309.15 2.269 23.344 15.562-28.855" fill="none" stroke="#000" stroke-width=".5"/>
  <path d="m237.46 316.61 1.622 17.184 18.804-35.34" fill="none" stroke="#000" stroke-width=".5"/>
  <path d="m235.19 319.85 0.648 14.914 22.695-43.769" fill="none" stroke="#000" stroke-width=".5"/>
  <path d="m232.27 325.04 0.648 11.996c3.89-6.483 25.613-54.144 25.613-54.144" fill="none" stroke="#000" stroke-width=".5"/>
  <path d="m257.89 281.27-27.882 56.737v-9.078" fill="none" stroke="#000" stroke-width=".5"/>
  <path d="m310.23 302c-14.768-4.882-42.942-40.508-42.942-40.508s20.75 38.581 29.828 45.39" fill="none" stroke="#000" stroke-width=".5"/>
  <path d="m266.32 260.2s11.347 50.253 15.886 53.171" fill="none" stroke="#000" stroke-width=".5"/>
  <path d="m351.5 274.87v12.278" fill="none" stroke="#000" stroke-width=".5"/>
  <path d="m357.64 277.33-0.614 7.982" fill="none" stroke="#000" stroke-width=".5"/>
  <path d="m307.9 258.3c15.349 15.042 62.623 23.944 62.623 23.944s-29.142-2.211-76.426-24.589" fill="none" stroke="#000" stroke-width=".5"/>
  <path d="m355.18 285.92s-33.153 0.922-43.897-16.576" fill="none" stroke="#000" stroke-width=".5"/>
  <path d="m274.75 316.31-7.464-54.822s47.335 33.395 60.628 32.746" fill="none" stroke="#000" stroke-width=".5"/>
  <path d="m269.53 262.29 2.015 57.514" fill="none" stroke="#000" stroke-width=".5"/>
  <path d="m270.53 263.11v55.658l3.891-51.443v49.293" fill="none" stroke="#000" stroke-width=".5"/>
  <path d="m278.44 269.35 0.307 46.966" fill="none" stroke="#000" stroke-width=".5"/>
  <path d="m281.2 271.19v43.284" fill="none" stroke="#000" stroke-width=".5"/>
  <path d="m285.19 273.34-0.307 39.6" fill="none" stroke="#000" stroke-width=".5"/>
  <path d="m289.49 275.49-0.477 35.286c-6.16-2.27-21.722-49.28-21.722-49.28s30.043 43.265 35.609 43.841" fill="none" stroke="#000" stroke-width=".5"/>
  <path d="m293.48 277.64 0.613 30.697" fill="none" stroke="#000" stroke-width=".5"/>
  <path d="m298.39 280.09-0.307 27.014" fill="none" stroke="#000" stroke-width=".5"/>
  <path d="m303.61 281.32 0.614 23.023" fill="none" stroke="#000" stroke-width=".5"/>
  <path d="m309.75 282.85-1.227 20.26" fill="none" stroke="#000" stroke-width=".5"/>
  <path d="m313.43 284.39 0.543 15.685c-15.238-6.16-43.444-36.96-43.444-36.96" fill="none" stroke="#000" stroke-width=".5"/>
  <path d="m317.73 285.31 1.109 13.467s-33.069-21.722-44.417-31.448" fill="none" stroke="#000" stroke-width=".5"/>
  <path d="m326.63 286.54 0.307 10.13" fill="none" stroke="#000" stroke-width=".5"/>
 </g>

 </svg>